# xmcd
#
# Track frame offsets: 
#        150
#        11769
#        25228
#        40397
#        52449
#        67903
#        81825
#        94593
#        106398
#        119927
#        136018
#        151211
#        166574
#        184509
#
# Disc length: 2806 seconds
#
# Revision: 1
# Processed by: cddbd v1.5.2PL0 Copyright (c) Steve Scherf et al.
# Submitted via: ExactAudioCopy v0.95b4
#
DISCID=b30af40e
DTITLE=Solomon Burke - Definitive Soul Collection (Disk 2)
DYEAR=1900
DGENRE=Soul
TTITLE0=Got to Get You Off My Mind
TTITLE1=Someone is Watching
TTITLE2=Baby Come on Home
TTITLE3=Keep Looking
TTITLE4=Keep a Light in the Window Till I Come Home
TTITLE5=Take Me (Just As I Am)
TTITLE6=Detroit City
TTITLE7=Party People
TTITLE8=I Wish I Knew (How it Would Feel to Be Free)
TTITLE9=Soul Meeting - The Soul Clan
TTITLE10=Get Out of My Life Woman
TTITLE11=Proud Mary
TTITLE12=Midnight and You
TTITLE13=You and Your Baby Blues
EXTD=
EXTT0=
EXTT1=
EXTT2=
EXTT3=
EXTT4=
EXTT5=
EXTT6=
EXTT7=
EXTT8=
EXTT9=
EXTT10=
EXTT11=
EXTT12=
EXTT13=
PLAYORDER=
